<svg xmlns="http://www.w3.org/2000/svg" version="1.1" xmlns:xlink="http://www.w3.org/1999/xlink" xmlns:svgjs="http://svgjs.dev/svgjs" width="1000" height="623" viewBox="0 0 1000 623"><g transform="matrix(1,0,0,1,-0.6060606060605664,0.2522267206477409)"><svg viewBox="0 0 396 247" data-background-color="#ffffff" preserveAspectRatio="xMidYMid meet" height="623" width="1000" xmlns="http://www.w3.org/2000/svg" xmlns:xlink="http://www.w3.org/1999/xlink"><g id="tight-bounds" transform="matrix(1,0,0,1,0.2400000000000091,-0.09999999999999432)"><svg viewBox="0 0 395.52 247.2" height="247.2" width="395.52"><g><svg></svg></g><g><svg viewBox="0 0 395.52 247.2" height="247.2" width="395.52"><g transform="matrix(1,0,0,1,75.54432,107.39272085150932)"><svg viewBox="0 0 244.43135999999998 32.414558296981326" height="32.414558296981326" width="244.43135999999998"><g><svg viewBox="0 0 244.43135999999998 32.414558296981326" height="32.414558296981326" width="244.43135999999998"><g><svg viewBox="0 0 244.43135999999998 32.414558296981326" height="32.414558296981326" width="244.43135999999998"><g><svg viewBox="0 0 244.43135999999998 32.414558296981326" height="32.414558296981326" width="244.43135999999998"><g><svg viewBox="0 0 244.43135999999998 32.414558296981326" height="32.414558296981326" width="244.43135999999998"><g><svg viewBox="0 0 244.43135999999998 32.414558296981326" height="32.414558296981326" width="244.43135999999998"><g transform="matrix(1,0,0,1,0,0)"><svg width="244.43135999999998" viewBox="1.5 -37.599998474121094 286.5199890136719 38" height="32.414558296981326" data-palette-color="#000000"><path d="M1.5-34.95L24.45-34.95 24.45-32.05 14.75-32.05 14.75 0 11.25 0 11.25-32.05 1.5-32.05 1.5-34.95ZM43-27.8Q46.1-27.8 48.57-26.5 51.05-25.2 52.47-22.53 53.9-19.85 53.9-16L53.9-16 53.9 0 50.45 0 50.45-15.6Q50.45-20.05 48.22-22.4 46-24.75 42.15-24.75L42.15-24.75Q38.2-24.75 35.85-22.25 33.5-19.75 33.5-14.9L33.5-14.9 33.5 0 30 0 30-37 33.5-37 33.5-22.65Q34.8-25.1 37.32-26.45 39.85-27.8 43-27.8L43-27.8ZM86.34-15.05Q86.34-13.25 86.25-12.3L86.25-12.3 63.6-12.3Q63.75-9.2 65.09-7 66.45-4.8 68.65-3.68 70.84-2.55 73.45-2.55L73.45-2.55Q76.84-2.55 79.17-4.2 81.5-5.85 82.25-8.65L82.25-8.65 85.95-8.65Q84.95-4.65 81.67-2.13 78.4 0.4 73.45 0.4L73.45 0.4Q69.59 0.4 66.55-1.33 63.5-3.05 61.77-6.23 60.05-9.4 60.05-13.65L60.05-13.65Q60.05-17.9 61.75-21.1 63.45-24.3 66.5-26 69.55-27.7 73.45-27.7L73.45-27.7Q77.34-27.7 80.27-26 83.2-24.3 84.77-21.43 86.34-18.55 86.34-15.05L86.34-15.05ZM82.8-15.15Q82.84-18.2 81.57-20.35 80.3-22.5 78.09-23.6 75.9-24.7 73.3-24.7L73.3-24.7Q69.4-24.7 66.65-22.2 63.9-19.7 63.6-15.15L63.6-15.15 82.8-15.15ZM124.69-32.1L109.94-32.1 109.94-19.05 123.19-19.05 123.19-16.15 109.94-16.15 109.94-2.9 124.69-2.9 124.69 0 106.44 0 106.44-35 124.69-35 124.69-32.1ZM135.09-22.45Q136.24-25 138.61-26.4 140.99-27.8 144.44-27.8L144.44-27.8 144.44-24.15 143.49-24.15Q139.69-24.15 137.39-22.1 135.09-20.05 135.09-15.25L135.09-15.25 135.09 0 131.59 0 131.59-27.3 135.09-27.3 135.09-22.45ZM153.19-22.45Q154.34-25 156.71-26.4 159.09-27.8 162.54-27.8L162.54-27.8 162.54-24.15 161.59-24.15Q157.79-24.15 155.49-22.1 153.19-20.05 153.19-15.25L153.19-15.25 153.19 0 149.69 0 149.69-27.3 153.19-27.3 153.19-22.45ZM179.73 0.4Q175.88 0.4 172.81-1.33 169.73-3.05 167.96-6.23 166.18-9.4 166.18-13.65L166.18-13.65Q166.18-17.9 167.98-21.08 169.78-24.25 172.88-25.98 175.98-27.7 179.83-27.7L179.83-27.7Q183.68-27.7 186.81-25.98 189.93-24.25 191.71-21.08 193.48-17.9 193.48-13.65L193.48-13.65Q193.48-9.45 191.68-6.25 189.88-3.05 186.73-1.33 183.58 0.4 179.73 0.4L179.73 0.4ZM179.73-2.65Q182.43-2.65 184.73-3.88 187.03-5.1 188.46-7.58 189.88-10.05 189.88-13.65L189.88-13.65Q189.88-17.25 188.48-19.73 187.08-22.2 184.78-23.43 182.48-24.65 179.78-24.65L179.78-24.65Q177.08-24.65 174.78-23.43 172.48-22.2 171.11-19.73 169.73-17.25 169.73-13.65L169.73-13.65Q169.73-10.05 171.11-7.58 172.48-5.1 174.76-3.88 177.03-2.65 179.73-2.65L179.73-2.65ZM203.38-22.45Q204.53-25 206.91-26.4 209.28-27.8 212.73-27.8L212.73-27.8 212.73-24.15 211.78-24.15Q207.98-24.15 205.68-22.1 203.38-20.05 203.38-15.25L203.38-15.25 203.38 0 199.88 0 199.88-27.3 203.38-27.3 203.38-22.45ZM221.48-34.95L221.48-2.85 234.03-2.85 234.03 0 217.98 0 217.98-34.95 221.48-34.95ZM240.78-32.45Q239.73-32.45 238.98-33.2 238.23-33.95 238.23-35.05L238.23-35.05Q238.23-36.15 238.98-36.88 239.73-37.6 240.78-37.6L240.78-37.6Q241.83-37.6 242.58-36.88 243.33-36.15 243.33-35.05L243.33-35.05Q243.33-33.95 242.58-33.2 241.83-32.45 240.78-32.45L240.78-32.45ZM239.03-27.3L242.53-27.3 242.53 0 239.03 0 239.03-27.3ZM259.87 0.4Q255.17 0.4 252.2-1.78 249.22-3.95 248.87-7.7L248.87-7.7 252.47-7.7Q252.72-5.4 254.65-3.98 256.57-2.55 259.82-2.55L259.82-2.55Q262.67-2.55 264.3-3.9 265.92-5.25 265.92-7.25L265.92-7.25Q265.92-8.65 265.02-9.55 264.12-10.45 262.75-10.98 261.37-11.5 259.02-12.1L259.02-12.1Q255.97-12.9 254.07-13.7 252.17-14.5 250.85-16.07 249.52-17.65 249.52-20.3L249.52-20.3Q249.52-22.3 250.72-24 251.92-25.7 254.12-26.7 256.32-27.7 259.12-27.7L259.12-27.7Q263.52-27.7 266.22-25.48 268.92-23.25 269.12-19.35L269.12-19.35 265.62-19.35Q265.47-21.75 263.75-23.23 262.02-24.7 259.02-24.7L259.02-24.7Q256.37-24.7 254.72-23.45 253.07-22.2 253.07-20.35L253.07-20.35Q253.07-18.75 254.05-17.73 255.02-16.7 256.47-16.13 257.92-15.55 260.37-14.85L260.37-14.85Q263.32-14.05 265.07-13.3 266.82-12.55 268.07-11.1 269.32-9.65 269.37-7.25L269.37-7.25Q269.37-5.05 268.17-3.33 266.97-1.6 264.82-0.6 262.67 0.4 259.87 0.4L259.87 0.4ZM288.02-24.35L280.52-24.35 280.52-7.4Q280.52-4.9 281.47-3.95 282.42-3 284.82-3L284.82-3 288.02-3 288.02 0 284.27 0Q280.57 0 278.77-1.73 276.97-3.45 276.97-7.4L276.97-7.4 276.97-24.35 273.17-24.35 273.17-27.3 276.97-27.3 276.97-34.15 280.52-34.15 280.52-27.3 288.02-27.3 288.02-24.35Z" opacity="1" transform="matrix(1,0,0,1,0,0)" fill="#000000" class="undefined-text-0" data-fill-palette-color="primary" id="text-0"></path></svg></g></svg></g></svg></g></svg></g></svg></g></svg></g></svg></g><g><path d="M0 123.6c0-68.262 55.338-123.6 123.6-123.6 61.441 0 112.412 44.831 121.985 103.567l-1.482 0c-9.558-57.924-59.871-102.105-120.503-102.105-67.455 0-122.138 54.683-122.138 122.138 0 67.455 54.683 122.138 122.138 122.138 60.632 0 110.946-44.181 120.503-102.105h1.482c-9.573 58.735-60.543 103.567-121.985 103.567-68.262 0-123.6-55.338-123.6-123.6z" fill="#000000" stroke="transparent" data-fill-palette-color="tertiary"></path></g></svg></g><defs></defs></svg><rect width="395.52" height="247.2" fill="none" stroke="none" visibility="hidden"></rect></g></svg></g></svg>